name C:\Users\u0101727\Documents\MyRepositories\upper-imu-dc\Results\main_mocap_tracking\Case_7\kinematics.mot
datacolumns 15
datarows 15
range 1.50000000 1.64000000
endheader 
time	ground_thorax_rot_x	ground_thorax_rot_y	ground_thorax_rot_z	clav_prot	clav_elev	scapula_abduction	scapula_elevation	scapula_upward_rot	scapula_winging	plane_elv	shoulder_elv	axial_rot	elbow_flexion	pro_sup	
          1.50000000	          2.43917789	         19.97282059	          9.97236583	        -15.25769577	        -19.40659884	         -7.34991121	         -9.78278625	         -7.55590728	         15.48892772	         75.69079525	         40.16887747	         -1.03209543	          9.22898206	         41.11644500	
          1.51000000	          2.48183141	         19.97826938	          9.97938754	        -15.39101996	        -19.35167856	         -7.55929736	         -9.76428319	         -7.49572483	         15.48458292	         76.18549201	         40.59443180	         -1.11788628	          9.47180776	         41.03360807	
          1.52000000	          2.53026337	         19.98365050	          9.98518683	        -15.53523069	        -19.30127179	         -7.78298253	         -9.75404902	         -7.42366768	         15.48451960	         76.67553299	         41.00477455	         -1.17797353	          9.71465305	         40.98133760	
          1.53000000	          2.58406851	         19.98861721	          9.98982422	        -15.69255800	        -19.25904320	         -8.02375299	         -9.75608426	         -7.33732511	         15.49136531	         77.16175083	         41.39707774	         -1.20730474	          9.95788161	         40.96640677	
          1.54000000	          2.64282096	         19.99269175	          9.99339415	        -15.86385095	        -19.22807065	         -8.28268561	         -9.77321363	         -7.23613942	         15.50713153	         77.64354120	         41.77018137	         -1.20491924	         10.20121507	         40.98929155	
          1.55000000	          2.70608031	         19.99568447	          9.99603285	        -16.04875780	        -19.21043139	         -8.55928414	         -9.80691963	         -7.12086503	         15.53296918	         78.11938602	         42.12448265	         -1.17262203	         10.44411020	         41.04672288	
          1.56000000	          2.77339183	         19.99772551	          9.99789054	        -16.24624078	        -19.20746663	         -8.85202529	         -9.85789526	         -6.99263767	         15.56941669	         78.58753771	         42.46125021	         -1.11336350	         10.68598671	         41.13425435	
          1.57000000	          2.84428604	         19.99902915	          9.99910139	        -16.45481318	        -19.22018401	         -9.15863825	         -9.92650554	         -6.85264754	         15.61672176	         79.04623749	         42.78220659	         -1.03051823	         10.92623162	         41.24775300	
          1.58000000	          2.91828990	         19.99976521	          9.99977210	        -16.67275377	        -19.24932984	         -9.47647811	        -10.01286392	         -6.70214367	         15.67496792	         79.49396979	         43.08935172	         -0.92773744	         11.16414810	         41.38386025	
          1.59000000	          2.99494311	         19.99998377	          9.99999765	        -16.89801239	        -19.29503521	         -9.80256075	        -10.11638218	         -6.54290318	         15.74388275	         79.92953254	         43.38516329	         -0.80943073	         11.39892327	         41.53902362	
          1.60000000	          3.07381718	         19.99956941	          9.99988913	        -17.12767455	        -19.35615252	        -10.13288994	        -10.23500441	         -6.37777545	         15.82232860	         80.35181296	         43.67308223	         -0.68157349	         11.62956553	         41.70774077	
          1.61000000	          3.15454681	         19.99829088	          9.99957329	        -17.35758075	        -19.42968622	        -10.46167050	        -10.36484311	         -6.21020793	         15.90776380	         80.75989924	         43.95760506	         -0.55206829	         11.85470040	         41.88093462	
          1.62000000	          3.23684585	         19.99586737	          9.99917689	        -17.58247342	        -19.51107909	        -10.78162271	        -10.50038604	         -6.04439229	         15.99648335	         81.15274511	         44.24409828	         -0.42993850	         12.07254537	         42.04519394	
          1.63000000	          3.32049657	         19.99197580	          9.99881785	        -17.79627397	        -19.59485884	        -11.08431163	        -10.63516828	         -5.88491969	         16.08406828	         81.52888826	         44.53827470	         -0.32500103	         12.28080991	         42.18283956	
          1.64000000	          3.40531825	         19.98623987	          9.99860279	        -17.99275821	        -19.67545135	        -11.36106402	        -10.76267456	         -5.73623756	         16.16601820	         81.88678243	         44.84554234	         -0.24622621	         12.47686039	         42.27514016	
